<?xml version="1.0" encoding="UTF-8" standalone="no"?>
<!-- Created with Inkscape (http://www.inkscape.org/) -->

<svg
   width="256"
   height="256"
   viewBox="0 0 256 256"
   version="1.1"
   id="svg135"
   inkscape:version="1.2.2 (b0a84865, 2022-12-01)"
   sodipodi:docname="01_serflings_icon.svg"
   xmlns:inkscape="http://www.inkscape.org/namespaces/inkscape"
   xmlns:sodipodi="http://sodipodi.sourceforge.net/DTD/sodipodi-0.dtd"
   xmlns="http://www.w3.org/2000/svg"
   xmlns:svg="http://www.w3.org/2000/svg">
  <sodipodi:namedview
     id="namedview137"
     pagecolor="#ffffff"
     bordercolor="#666666"
     borderopacity="1.0"
     inkscape:showpageshadow="2"
     inkscape:pageopacity="0.0"
     inkscape:pagecheckerboard="true"
     inkscape:deskcolor="#d1d1d1"
     inkscape:document-units="px"
     showgrid="false"
     inkscape:zoom="0.70710678"
     inkscape:cx="65.760931"
     inkscape:cy="52.325902"
     inkscape:window-width="1857"
     inkscape:window-height="912"
     inkscape:window-x="0"
     inkscape:window-y="25"
     inkscape:window-maximized="0"
     inkscape:current-layer="layer3"
     showguides="false">
    <sodipodi:guide
       position="158.89927,196.50487"
       orientation="0,-1"
       id="guide1935"
       inkscape:locked="false" />
    <sodipodi:guide
       position="182.03081,223.58824"
       orientation="0,-1"
       id="guide1937"
       inkscape:locked="false" />
    <sodipodi:guide
       position="181.91194,223.58824"
       orientation="1,0"
       id="guide1939"
       inkscape:locked="false" />
    <sodipodi:guide
       position="188.16401,231.45281"
       orientation="0,-1"
       id="guide1941"
       inkscape:locked="false" />
    <sodipodi:guide
       position="188.0904,201.80676"
       orientation="1,0"
       id="guide1943"
       inkscape:locked="false" />
    <sodipodi:guide
       position="158.89927,196.50487"
       orientation="1,0"
       id="guide1945"
       inkscape:locked="false" />
    <sodipodi:guide
       position="58.853571,91.29641"
       orientation="0.74314483,-0.66913061"
       id="guide1951"
       inkscape:locked="false"
       inkscape:label=""
       inkscape:color="rgb(0,134,229)" />
    <sodipodi:guide
       position="86.327563,115.90582"
       orientation="0.74314483,-0.66913061"
       id="guide1953"
       inkscape:locked="false"
       inkscape:label=""
       inkscape:color="rgb(0,134,229)" />
  </sodipodi:namedview>
  <defs
     id="defs132" />
  <g
     inkscape:groupmode="layer"
     id="layer3"
     inkscape:label="v3"
     style="display:none"
     sodipodi:insensitive="true">
    <g
       aria-label="S"
       id="text330-5-9"
       style="font-size:266.667px;line-height:1.25;display:inline;fill:#234300;fill-opacity:1;stroke:#73b343;stroke-width:10;stroke-dasharray:none;stroke-opacity:1">
      <path
         d="m 158.89927,59.495132 c 13.9027,-2e-6 17.98915,14.782653 7.78589,35.9366 3.80525,1.846083 8.78454,0.09489 11.45662,-1.982139 13.1635,-10.232111 19.29748,-44.329041 -0.17211,-61.037833 l -84.66813,10e-7 C 76.200825,56.109706 67.129633,73.167019 66.087965,83.583698 65.046297,94.000377 76.648732,103.15837 84.89527,111.05769 c 8.246538,7.81251 24.17538,15.66842 47.78652,23.56774 23.69794,7.89931 37.45664,16.66668 41.27609,26.30211 3.90625,9.54863 2.86458,18.44621 -3.12501,26.69274 -5.90278,8.24654 -15.10418,12.06599 -27.6042,11.45835 -12.50001,-0.69445 -24.04516,-4.5573 -34.63545,-11.58855 -10.503488,-7.11807 -17.664957,-14.62676 -21.484406,-22.52607 -3.819449,-7.89932 -4.079866,-16.18926 -0.781251,-24.86983 L 180.80923,35.161656 181.91194,28.033425 85.515254,135.09279 58.853571,164.70359 c -2.517364,7.55209 0.0434,16.44967 7.682301,26.69274 7.725704,10.24307 16.579882,18.09898 26.562533,23.56774 9.982655,5.38195 20.963565,8.24653 32.942745,8.59376 11.97919,0.43403 23.48094,-3.77605 34.50525,-12.63023 11.02432,-8.94098 20.09551,-19.01044 27.21358,-30.20837 7.20487,-11.28473 10.02605,-22.91669 8.46355,-34.89587 -1.47569,-11.97918 -5.59896,-20.35593 -12.36981,-25.13024 -6.77084,-4.86112 -23.91496,-11.93578 -51.43235,-21.223986 -27.51739,-9.375011 -48.581647,-22.69968 -47.192757,-39.974007 25.600727,6e-6 48.069927,-8e-6 73.670657,5e-6 z"
         style="font-family:'Kingthings Foundation';-inkscape-font-specification:'Kingthings Foundation';fill:#234300;fill-opacity:1;stroke:#73b343;stroke-width:10;stroke-dasharray:none;stroke-opacity:1"
         id="path414-6-1"
         sodipodi:nodetypes="ccsccsccccccsccccccccccccccc" />
    </g>
    <circle
       style="display:inline;fill:#234300;fill-opacity:1;stroke:#73b343;stroke-width:10;stroke-linecap:round;stroke-dasharray:none;stroke-opacity:1;stop-color:#000000"
       id="path2007-2-2"
       cx="169.41194"
       cy="83.885544"
       r="12.5" />
    <g
       aria-label="S"
       id="text330-5"
       style="font-size:266.667px;line-height:1.25;display:inline;fill:#234300;fill-opacity:1">
      <path
         d="m 158.89927,59.495132 c 13.9027,-2e-6 20.71593,15.736465 10.51267,36.890412 18.34804,1.391198 31.97948,-43.87325 8.55773,-63.973784 l -84.66813,10e-7 C 76.200825,56.109706 67.129633,73.167019 66.087965,83.583698 65.046297,94.000377 76.648732,103.15837 84.89527,111.05769 c 8.246538,7.81251 24.17538,15.66842 47.78652,23.56774 23.69794,7.89931 37.45664,16.66668 41.27609,26.30211 3.90625,9.54863 2.86458,18.44621 -3.12501,26.69274 -5.90278,8.24654 -15.10418,12.06599 -27.6042,11.45835 -12.50001,-0.69445 -24.04516,-4.5573 -34.63545,-11.58855 -10.503488,-7.11807 -17.664957,-14.62676 -21.484406,-22.52607 -3.819449,-7.89932 -4.079866,-16.18926 -0.781251,-24.86983 L 180.80923,35.161656 181.91194,28.033425 85.515254,135.09279 58.853571,164.70359 c -2.517364,7.55209 0.0434,16.44967 7.682301,26.69274 7.725704,10.24307 16.579882,18.09898 26.562533,23.56774 9.982655,5.38195 20.963565,8.24653 32.942745,8.59376 11.97919,0.43403 23.48094,-3.77605 34.50525,-12.63023 11.02432,-8.94098 20.09551,-19.01044 27.21358,-30.20837 7.20487,-11.28473 10.02605,-22.91669 8.46355,-34.89587 -1.47569,-11.97918 -5.59896,-20.35593 -12.36981,-25.13024 -6.77084,-4.86112 -23.91496,-11.93578 -51.43235,-21.223986 -27.51739,-9.375011 -48.581647,-22.69968 -47.192757,-39.974007 25.600727,6e-6 48.069927,-8e-6 73.670657,5e-6 z"
         style="font-family:'Kingthings Foundation';-inkscape-font-specification:'Kingthings Foundation';fill:#234300;fill-opacity:1"
         id="path414-6"
         sodipodi:nodetypes="ccccsccccccsccccccccccccccc" />
    </g>
    <circle
       style="display:inline;fill:#234300;fill-opacity:1;stroke:none;stroke-width:21.7489;stroke-linecap:round;stroke-dasharray:none;stop-color:#000000"
       id="path2007-2"
       cx="169.41194"
       cy="83.885544"
       r="12.5" />
  </g>
  <g
     inkscape:groupmode="layer"
     id="layer2"
     inkscape:label="v2"
     style="display:inline"
     sodipodi:insensitive="true">
    <g
       aria-label="S"
       id="text330"
       style="font-size:266.667px;line-height:1.25;display:inline">
      <path
         d="m 162.0308,59.49513 c 13.08665,5.573203 13.7853,22.372992 12.00001,32.504862 11.39934,-16.660274 27.44352,-39.995148 3.93886,-59.588232 l -84.66813,10e-7 C 76.200825,56.109706 67.129633,73.167019 66.087965,83.583698 65.046297,94.000377 76.648732,103.15837 84.89527,111.05769 c 8.246538,7.81251 24.17538,15.66842 47.78652,23.56774 23.69794,7.89931 37.45664,16.66668 41.27609,26.30211 3.90625,9.54863 2.86458,18.44621 -3.12501,26.69274 -5.90278,8.24654 -15.10418,12.06599 -27.6042,11.45835 -12.50001,-0.69445 -24.04516,-4.5573 -34.63545,-11.58855 -10.503488,-7.11807 -17.664957,-14.62676 -21.484406,-22.52607 -3.819449,-7.89932 -4.079866,-16.18926 -0.781251,-24.86983 l 94.567097,-105.0274 -2.92499,-2.65502 -92.454416,102.68103 -26.661683,29.6108 c -2.517364,7.55209 0.0434,16.44967 7.682301,26.69274 7.725704,10.24307 16.579882,18.09898 26.562533,23.56774 9.982655,5.38195 20.963565,8.24653 32.942745,8.59376 11.97919,0.43403 23.48094,-3.77605 34.50525,-12.63023 11.02432,-8.94098 20.09551,-19.01044 27.21358,-30.20837 7.20487,-11.28473 10.02605,-22.91669 8.46355,-34.89587 -1.47569,-11.97918 -5.59896,-20.35593 -12.36981,-25.13024 -6.77084,-4.86112 -23.91496,-11.93578 -51.43235,-21.223986 -27.51739,-9.375011 -48.581647,-22.69968 -47.192757,-39.974007 25.600727,6e-6 51.201457,-10e-6 76.802187,3e-6 z"
         style="font-family:'Kingthings Foundation';-inkscape-font-specification:'Kingthings Foundation'"
         id="path414"
         sodipodi:nodetypes="ccccsccccccsccccccccccccccc" />
    </g>
  </g>
  <g
     inkscape:label="v1"
     inkscape:groupmode="layer"
     id="layer1"
     style="display:none"
     sodipodi:insensitive="true">
    <g
       aria-label="S"
       id="text537-5"
       style="font-size:266.667px;line-height:1.25;font-family:'Kingthings Foundation';-inkscape-font-specification:'Kingthings Foundation';fill:#73b343;fill-opacity:1;stroke:#73b343;stroke-width:7.55906;stroke-dasharray:none;stroke-opacity:1"
       inkscape:label="kontur">
      <path
         d="m 164.06203,59.495127 c -1.99653,3.906255 -3.0816,7.50869 -3.25521,10.807305 -0.26041,4.427089 0.91146,8.680566 3.51563,12.760432 2.60417,4.079866 6.59723,6.553827 11.97918,7.421884 5.46876,0.868057 10.54689,-0.347222 15.2344,-3.645837 4.6875,-3.298615 6.85764,-9.548623 6.51042,-18.750023 l -1.04167,-0.130209 c -0.0868,8.854177 -2.43056,14.756962 -7.03126,17.708355 -4.51389,2.864587 -9.33161,3.732643 -14.45314,2.60417 -5.03473,-1.215279 -8.50695,-4.036463 -10.41668,-8.463552 -1.90973,-4.427089 -2.21355,-9.071192 -0.91146,-13.932309 0.69445,-2.517364 1.4323,-4.644103 2.21355,-6.380216 h 0.1302 l 1.95313,-3.515629 v 0 L 182.03081,32.411761 H 101.30154 C 84.200825,56.109706 75.129633,73.167019 74.087965,83.583698 c -1.041668,10.416679 2.560767,19.574672 10.807305,27.473992 8.246538,7.81251 24.17538,15.66842 47.78652,23.56774 23.69794,7.89931 37.45664,16.66668 41.27609,26.30211 3.90625,9.54863 2.86458,18.44621 -3.12501,26.69274 -5.90278,8.24654 -15.10418,12.06599 -27.6042,11.45835 -12.50001,-0.69445 -24.04516,-4.5573 -34.63545,-11.58855 -10.503488,-7.11807 -17.664957,-14.62676 -21.484406,-22.52607 -3.819449,-7.89932 -4.079866,-16.18926 -0.781251,-24.86983 l -2.343753,-2.47396 -25.130239,27.08337 c -2.517364,7.55209 0.0434,16.44967 7.682301,26.69274 7.725704,10.24307 16.579882,18.09898 26.562533,23.56774 9.982655,5.38195 20.963565,8.24653 32.942745,8.59376 11.97919,0.43403 23.48094,-3.77605 34.50525,-12.63023 11.02432,-8.94098 20.09551,-19.01044 27.21358,-30.20837 7.20487,-11.28473 10.02605,-22.91669 8.46355,-34.89587 -1.47569,-11.97918 -5.59896,-20.35593 -12.36981,-25.13024 C 177.08288,115.832 159.93876,108.75734 132.42137,99.469134 104.90398,90.094123 91.839723,76.769454 93.228613,59.495127 Z"
         id="path539-3"
         style="display:inline;fill:#73b343;fill-opacity:1;stroke:#73b343;stroke-width:7.55906;stroke-dasharray:none;stroke-opacity:1"
         sodipodi:nodetypes="ccscsccccscccccccsccccccsccccccccccccc" />
    </g>
    <g
       aria-label="S"
       id="text537"
       style="font-size:266.667px;line-height:1.25;font-family:'Kingthings Foundation';-inkscape-font-specification:'Kingthings Foundation';fill:#234300;fill-opacity:1">
      <path
         d="m 164.06203,59.495127 c -1.99653,3.906255 -3.0816,7.50869 -3.25521,10.807305 -0.26041,4.427089 0.91146,8.680566 3.51563,12.760432 2.60417,4.079866 6.59723,6.553827 11.97918,7.421884 5.46876,0.868057 10.54689,-0.347222 15.2344,-3.645837 4.6875,-3.298615 6.85764,-9.548623 6.51042,-18.750023 l -1.04167,-0.130209 c -0.0868,8.854177 -2.43056,14.756962 -7.03126,17.708355 -4.51389,2.864587 -9.33161,3.732643 -14.45314,2.60417 -5.03473,-1.215279 -8.50695,-4.036463 -10.41668,-8.463552 -1.90973,-4.427089 -2.21355,-9.071192 -0.91146,-13.932309 0.69445,-2.517364 1.4323,-4.644103 2.21355,-6.380216 v 0 l 1.94784,-3.271755 v 0 0 L 182.03081,32.411761 H 101.30154 C 84.200825,56.109706 75.129633,73.167019 74.087965,83.583698 c -1.041668,10.416679 2.560767,19.574672 10.807305,27.473992 8.246538,7.81251 24.17538,15.66842 47.78652,23.56774 23.69794,7.89931 37.45664,16.66668 41.27609,26.30211 3.90625,9.54863 2.86458,18.44621 -3.12501,26.69274 -5.90278,8.24654 -15.10418,12.06599 -27.6042,11.45835 -12.50001,-0.69445 -24.04516,-4.5573 -34.63545,-11.58855 -10.503488,-7.11807 -17.664957,-14.62676 -21.484406,-22.52607 -3.819449,-7.89932 -4.079866,-16.18926 -0.781251,-24.86983 l -2.343753,-2.47396 -25.130239,27.08337 c -2.517364,7.55209 0.0434,16.44967 7.682301,26.69274 7.725704,10.24307 16.579882,18.09898 26.562533,23.56774 9.982655,5.38195 20.963565,8.24653 32.942745,8.59376 11.97919,0.43403 23.48094,-3.77605 34.50525,-12.63023 11.02432,-8.94098 20.09551,-19.01044 27.21358,-30.20837 7.20487,-11.28473 10.02605,-22.91669 8.46355,-34.89587 -1.47569,-11.97918 -5.59896,-20.35593 -12.36981,-25.13024 C 177.08288,115.832 159.93876,108.75734 132.42137,99.469134 104.90398,90.094123 91.839723,76.769454 93.228613,59.495127 Z"
         id="path539"
         style="display:inline;fill:#234300;fill-opacity:1;stroke:none;stroke-width:1.00157;stroke-dasharray:none"
         sodipodi:nodetypes="ccscsccccsccccccccsccccccsccccccccccccc" />
    </g>
  </g>
</svg>
